<svg version="1" xmlns="http://www.w3.org/2000/svg" width="682.667" height="682.667" viewBox="0 0 512.000000 512.000000"><path d="M75.2 32C64.3 34.9 56.5 39.4 48 48c-8.7 8.6-13.1 16.3-16 27.6-2 7.5-2 11.7-2 180.4 0 168.7 0 172.9 2 180.4 2.9 11.3 7.3 19 16 27.6 8.6 8.7 16.3 13.1 27.6 16 7.5 2 11.7 2 180.4 2 168.7 0 172.9 0 180.4-2 11.3-2.9 19-7.3 27.6-16 8.7-8.6 13.1-16.3 16-27.6 2-7.5 2-11.7 2-180.4 0-168.7 0-172.9-2-180.4-2.9-11.3-7.3-19-16-27.6-8.6-8.7-16.3-13.1-27.6-16-7.5-2-11.6-2-180.8-1.9-167.1 0-173.4.1-180.4 1.9zm262.2 67.9c17.4 4.6 31.9 15.3 38.9 28.8 5.6 10.7 7.4 16.7 9.7 32.6 1.2 7.8 2.6 16.4 3.1 19.1 1.2 6.6 1.1 13-.2 16-1.2 2.5-3.9 4-9.6 5.1-8.3 1.6-11.7 11-11.8 32.5 0 17.7 1.4 24.7 6.2 29.8l3.3 3.5 8.5-.7c5.5-.4 9.3-.2 10.9.5 4.7 2.2 5.1 5.1 5.1 36.9 0 33.1-.8 38.7-7.9 53.1-12.7 25.8-31.2 38.1-66.7 44.3l-3.6.6-.8 8.2c-.4 4.6-1.3 9.4-2 10.8-3.4 6.6-15.5 6.7-18.4.2-.7-1.4-1.7-6.2-2.3-10.7l-1-8.2-9.5-1.2c-16.8-2.2-31.7-7.7-42.9-15.9-5.9-4.3-18.6-19.7-22.3-26.9-4.8-9.6-8.1-22.4-8.8-34.1l-.6-10.3-3.6-1.9c-14.3-7.3-15.5-28.7-2.1-37.2 9-5.7 16.8-6.1 26.6-1.3 10.3 5.1 15.4 15.4 15.4 31.4 0 11.2 2.1 24.5 5 32.5 2.5 6.5 8.2 13.2 15.1 17.6 10.5 6.8 35.8 10.7 52.6 8.1 30.4-4.7 42.6-17.9 44-47.6l.6-11-7.3-3.5c-12.5-6-21.6-18.6-26.3-36.3-1.8-7.1-2.1-11-2.2-28.7 0-16 .4-22.3 1.8-28.5 2.2-9.9 8.1-22.5 13.5-28.8 3.2-3.7 4-5.4 3.7-7.5-.2-1.5-.9-5.8-1.5-9.6-1.3-8.4-3-11.8-8.3-17.3-4.6-4.8-9.4-6.7-21-8.3-17.3-2.3-34.3-.1-42.5 5.4-5.7 3.9-9.2 10.2-9.1 16.5 0 4.4.3 4.8 4.7 7.6 12.3 7.8 13.2 26.3 1.7 35.1-8.1 6.1-17.6 7-27 2.5-7.2-3.4-9.6-5.8-13-13.4-3.4-7.4-4.2-17.9-2.5-32.5 1.5-12.9 3.8-20.4 9.2-29.6 8.8-15 24.6-25.3 44.3-29.2 10.7-2.1 40.6-1.2 50.9 1.5zm-164.3 2.5c10.1 5.1 15.5 12.5 18.3 24.8 4 17.6 4.5 58.3 1.1 83.3-2.1 15.6-1.9 20.4 1.1 29.5 1.5 4.5 2.4 8.9 2.1 10.2-.4 1.3-3 4.8-5.9 7.8-8.6 8.9-16.3 25.9-22.4 49-2.8 10.4-5.3 27.6-5.4 35.6v5.1l4.5.6c13.8 1.9 23.7 13 23.6 26.3-.2 23.3-27.8 34.1-47.8 18.8-8-6.1-11.7-15.6-13.8-35.8-1.9-18.6-1.9-41.5.1-58.1 3.2-27.5 3.1-32.1-1.7-44.1-1.7-4.4-.6-7.2 5.5-13.7 13.1-13.9 25.4-49.8 27.3-79.5l.6-10.2h-2.6c-4.1 0-12.8-3.7-17.1-7.2-10.6-8.7-11.5-26.9-1.8-37.1 2.7-2.9 8.4-6.3 13.2-7.8 4.9-1.6 15.3-.4 21.1 2.5z"/></svg>