<?xml version="1.0" standalone="no"?>
<!DOCTYPE svg PUBLIC "-//W3C//DTD SVG 20010904//EN"
 "http://www.w3.org/TR/2001/REC-SVG-20010904/DTD/svg10.dtd">
<svg version="1.0" xmlns="http://www.w3.org/2000/svg"
 width="512.000000pt" height="512.000000pt" viewBox="0 0 512.000000 512.000000"
 preserveAspectRatio="xMidYMid meet">
<metadata>
Created by potrace 1.11, written by Peter Selinger 2001-2013
</metadata>
<g transform="translate(0.000000,512.000000) scale(0.100000,-0.100000)"
fill="#000000" stroke="none">
<path d="M1615 4169 c-522 -187 -952 -342 -955 -346 -10 -12 281 -2506 294
-2519 6 -7 370 -210 809 -453 l797 -441 32 16 c35 18 1582 875 1585 877 0 1
65 556 142 1232 78 677 144 1244 147 1261 l6 31 -879 313 c-483 172 -912 325
-953 340 l-76 27 -949 -338z m1542 -1459 l591 -1330 -222 0 -222 0 -120 298
-119 297 -506 3 -507 2 -119 -297 -119 -298 -223 -3 c-129 -1 -221 1 -219 7
22 59 1184 2651 1188 2651 3 0 272 -598 597 -1330z"/>
<path d="M2387 2768 c-92 -222 -167 -406 -167 -410 0 -5 153 -8 340 -8 187 0
340 3 340 8 0 14 -334 812 -340 812 -3 0 -81 -181 -173 -402z"/>
</g>
</svg>
