<svg id="svg" xmlns="http://www.w3.org/2000/svg" xmlns:xlink="http://www.w3.org/1999/xlink" width="400" height="400" viewBox="0, 0, 400,400"><g id="svgg"><path id="path0" d="M229.400 76.042 C 207.534 79.414,194.989 87.551,187.222 103.400 C 184.064 109.843,183.476 111.966,182.121 121.800 C 178.845 145.570,185.426 159.064,201.224 160.970 C 220.366 163.280,229.560 137.365,212.773 128.418 L 210.400 127.153 210.400 123.277 C 210.401 118.554,211.603 115.538,214.699 112.496 C 217.671 109.575,221.220 107.983,227.400 106.795 C 228.720 106.542,230.555 106.169,231.477 105.967 C 233.762 105.467,244.272 105.499,248.200 106.017 C 255.305 106.956,257.110 107.285,259.576 108.096 C 269.220 111.263,272.678 117.222,274.608 134.000 L 274.861 136.200 272.407 139.000 C 263.309 149.384,259.719 161.166,259.305 182.000 C 258.757 209.627,266.556 227.734,282.353 235.512 C 288.024 238.304,287.587 237.663,287.591 243.200 C 287.605 266.132,277.400 279.892,258.200 282.830 C 257.100 282.999,254.940 283.366,253.400 283.646 C 249.924 284.279,236.680 284.295,232.000 283.672 C 211.659 280.964,201.710 273.201,198.073 257.200 C 196.762 251.434,196.519 248.910,196.197 237.722 C 195.774 222.984,191.147 215.643,179.984 211.995 C 159.218 205.209,146.005 234.457,165.459 244.146 L 167.518 245.172 167.771 250.286 C 167.910 253.099,168.199 256.051,168.412 256.846 C 168.625 257.642,168.800 258.948,168.800 259.748 C 168.800 263.068,172.452 274.857,175.120 280.151 C 176.985 283.851,184.393 293.189,189.339 298.074 C 198.037 306.664,214.968 313.029,232.000 314.111 C 233.562 314.210,233.430 313.790,234.354 321.600 C 235.139 328.235,236.231 330.660,239.051 332.025 C 243.115 333.992,248.601 332.360,250.564 328.600 C 251.358 327.081,251.540 325.924,252.236 318.000 C 252.598 313.882,252.291 314.099,259.600 312.798 C 261.030 312.543,263.100 312.146,264.200 311.916 C 266.573 311.420,275.227 308.803,275.800 308.409 C 276.020 308.258,276.830 307.895,277.600 307.603 C 294.401 301.234,307.934 284.969,312.047 266.200 C 314.161 256.552,314.530 251.741,314.251 237.400 C 313.703 209.243,313.078 207.343,304.658 208.232 C 290.144 209.766,287.121 205.501,287.059 183.400 C 287.004 164.164,289.465 158.712,299.068 156.797 C 301.908 156.230,303.585 154.803,304.396 152.263 C 304.894 150.701,305.002 145.050,304.547 144.314 C 304.410 144.092,304.138 142.716,303.943 141.255 C 303.749 139.795,303.418 137.610,303.209 136.400 C 302.337 131.361,301.943 128.839,301.582 126.000 C 300.599 118.270,299.882 114.839,298.195 109.800 C 292.175 91.820,279.019 80.859,258.800 76.979 C 253.356 75.934,234.083 75.320,229.400 76.042 M119.000 78.155 C 101.132 83.152,97.023 104.659,112.000 114.791 C 114.490 116.475,121.043 118.800,123.301 118.800 L 124.800 118.800 124.798 124.100 C 124.796 129.517,123.915 136.848,122.337 144.576 C 121.885 146.789,121.352 149.406,121.153 150.392 C 120.721 152.523,118.994 158.214,117.947 160.953 C 117.536 162.028,117.200 163.155,117.200 163.459 C 117.200 163.762,117.034 164.323,116.832 164.705 C 116.630 165.087,116.064 166.480,115.574 167.800 C 112.113 177.139,105.604 187.948,101.724 190.801 C 98.621 193.083,97.735 197.118,99.511 200.875 C 102.463 207.120,103.081 214.049,101.592 224.200 C 99.866 235.968,99.484 241.703,99.462 256.200 C 99.439 270.913,99.952 278.858,101.578 289.000 C 103.724 302.386,111.704 310.909,123.883 312.823 C 143.706 315.938,156.922 292.537,143.063 278.859 C 138.450 274.306,135.797 273.040,128.300 271.810 L 126.800 271.564 126.800 267.282 C 126.801 260.467,128.140 250.236,130.057 242.400 C 132.556 232.185,136.678 220.340,139.869 214.200 C 144.022 206.210,145.999 203.187,148.457 201.067 C 151.878 198.116,152.248 197.686,152.721 196.106 C 153.396 193.852,153.334 193.171,152.171 190.109 C 150.933 186.851,150.261 184.815,149.615 182.361 C 148.903 179.659,149.326 171.942,150.797 160.800 C 151.900 152.444,152.154 147.559,152.167 134.400 C 152.181 121.161,152.002 117.543,150.800 106.800 C 149.561 95.718,147.441 90.343,142.200 84.994 C 135.833 78.496,127.044 75.905,119.000 78.155 " stroke="none" fill="#fafbfb" fill-rule="evenodd"></path><path id="path1" d="M0.000 200.000 L 0.000 400.000 200.000 400.000 L 400.000 400.000 400.000 200.000 L 400.000 0.000 200.000 0.000 L 0.000 0.000 0.000 200.000 M254.200 76.332 C 276.659 78.988,291.713 90.439,298.195 109.800 C 299.882 114.839,300.599 118.270,301.582 126.000 C 301.943 128.839,302.337 131.361,303.209 136.400 C 303.418 137.610,303.749 139.795,303.943 141.255 C 304.138 142.716,304.410 144.092,304.547 144.314 C 305.002 145.050,304.894 150.701,304.396 152.263 C 303.585 154.803,301.908 156.230,299.068 156.797 C 289.465 158.712,287.004 164.164,287.059 183.400 C 287.121 205.501,290.144 209.766,304.658 208.232 C 313.078 207.343,313.703 209.243,314.251 237.400 C 314.530 251.741,314.161 256.552,312.047 266.200 C 307.934 284.969,294.401 301.234,277.600 307.603 C 276.830 307.895,276.020 308.258,275.800 308.409 C 275.227 308.803,266.573 311.420,264.200 311.916 C 263.100 312.146,261.030 312.543,259.600 312.798 C 252.291 314.099,252.598 313.882,252.236 318.000 C 251.540 325.924,251.358 327.081,250.564 328.600 C 248.601 332.360,243.115 333.992,239.051 332.025 C 236.231 330.660,235.139 328.235,234.354 321.600 C 233.430 313.790,233.562 314.210,232.000 314.111 C 214.968 313.029,198.037 306.664,189.339 298.074 C 184.393 293.189,176.985 283.851,175.120 280.151 C 172.452 274.857,168.800 263.068,168.800 259.748 C 168.800 258.948,168.625 257.642,168.412 256.846 C 168.199 256.051,167.910 253.099,167.771 250.286 L 167.518 245.172 165.459 244.146 C 146.005 234.457,159.218 205.209,179.984 211.995 C 191.147 215.643,195.774 222.984,196.197 237.722 C 196.570 250.688,197.072 254.554,199.293 261.558 C 204.125 276.800,218.234 284.089,243.000 284.140 C 247.501 284.150,251.742 283.948,253.400 283.646 C 254.940 283.366,257.100 282.999,258.200 282.830 C 277.400 279.892,287.605 266.132,287.591 243.200 C 287.587 237.663,288.024 238.304,282.353 235.512 C 266.556 227.734,258.757 209.627,259.305 182.000 C 259.719 161.166,263.309 149.384,272.407 139.000 L 274.861 136.200 274.608 134.000 C 272.678 117.222,269.220 111.263,259.576 108.096 C 257.110 107.285,255.305 106.956,248.200 106.017 C 244.272 105.499,233.762 105.467,231.477 105.967 C 230.555 106.169,228.720 106.542,227.400 106.795 C 221.220 107.983,217.671 109.575,214.699 112.496 C 211.603 115.538,210.401 118.554,210.400 123.277 L 210.400 127.153 212.773 128.418 C 222.824 133.775,224.780 147.439,216.635 155.400 C 208.928 162.933,196.835 162.846,188.665 155.200 C 181.964 148.928,179.861 138.197,182.121 121.800 C 183.476 111.966,184.064 109.843,187.222 103.400 C 194.989 87.551,207.534 79.414,229.400 76.042 C 232.287 75.597,249.706 75.801,254.200 76.332 M129.843 78.012 C 142.753 81.471,148.915 89.935,150.800 106.800 C 152.002 117.543,152.181 121.161,152.167 134.400 C 152.154 147.559,151.900 152.444,150.797 160.800 C 149.326 171.942,148.903 179.659,149.615 182.361 C 150.261 184.815,150.933 186.851,152.171 190.109 C 153.334 193.171,153.396 193.852,152.721 196.106 C 152.248 197.686,151.878 198.116,148.457 201.067 C 145.999 203.187,144.022 206.210,139.869 214.200 C 136.678 220.340,132.556 232.185,130.057 242.400 C 128.140 250.236,126.801 260.467,126.800 267.282 L 126.800 271.564 128.300 271.810 C 135.797 273.040,138.450 274.306,143.063 278.859 C 156.922 292.537,143.706 315.938,123.883 312.823 C 111.704 310.909,103.724 302.386,101.578 289.000 C 99.952 278.858,99.439 270.913,99.462 256.200 C 99.484 241.703,99.866 235.968,101.592 224.200 C 103.081 214.049,102.463 207.120,99.511 200.875 C 97.735 197.118,98.621 193.083,101.724 190.801 C 105.604 187.948,112.113 177.139,115.574 167.800 C 116.064 166.480,116.630 165.087,116.832 164.705 C 117.034 164.323,117.200 163.762,117.200 163.459 C 117.200 163.155,117.536 162.028,117.947 160.953 C 118.994 158.214,120.721 152.523,121.153 150.392 C 121.352 149.406,121.885 146.789,122.337 144.576 C 123.915 136.848,124.796 129.517,124.798 124.100 L 124.800 118.800 123.301 118.800 C 117.373 118.800,107.932 113.011,105.292 107.757 C 97.130 91.514,112.181 73.279,129.843 78.012 " stroke="none" fill="#21212100" fill-rule="evenodd"></path></g></svg>